<mxfile host="app.diagrams.net" agent="Mozilla/5.0 (X11; Ubuntu; Linux x86_64; rv:137.0) Gecko/20100101 Firefox/137.0" version="26.2.12">
  <diagram name="Page-1" id="IR86y4h4N_Sz3P47edoH">
    <mxGraphModel dx="1428" dy="790" grid="1" gridSize="10" guides="1" tooltips="1" connect="1" arrows="1" fold="1" page="1" pageScale="1" pageWidth="850" pageHeight="1100" math="0" shadow="0">
      <root>
        <mxCell id="0" />
        <mxCell id="1" parent="0" />
        <mxCell id="vGu7ZvFE66Z81DEIiD86-1" style="edgeStyle=orthogonalEdgeStyle;rounded=0;orthogonalLoop=1;jettySize=auto;html=1;exitX=1;exitY=0.5;exitDx=0;exitDy=0;" edge="1" parent="1" source="vGu7ZvFE66Z81DEIiD86-2">
          <mxGeometry relative="1" as="geometry">
            <mxPoint x="409" y="400" as="targetPoint" />
          </mxGeometry>
        </mxCell>
        <mxCell id="vGu7ZvFE66Z81DEIiD86-2" value="Provider" style="ellipse;whiteSpace=wrap;html=1;aspect=fixed;" vertex="1" parent="1">
          <mxGeometry x="199" y="360" width="80" height="80" as="geometry" />
        </mxCell>
        <mxCell id="vGu7ZvFE66Z81DEIiD86-3" style="edgeStyle=orthogonalEdgeStyle;rounded=0;orthogonalLoop=1;jettySize=auto;html=1;" edge="1" parent="1">
          <mxGeometry relative="1" as="geometry">
            <mxPoint x="478.20000000000005" y="400" as="sourcePoint" />
            <mxPoint x="609" y="400" as="targetPoint" />
          </mxGeometry>
        </mxCell>
        <mxCell id="vGu7ZvFE66Z81DEIiD86-6" value="Email" style="text;html=1;align=center;verticalAlign=middle;whiteSpace=wrap;rounded=0;" vertex="1" parent="1">
          <mxGeometry x="605" y="430" width="60" height="30" as="geometry" />
        </mxCell>
        <mxCell id="vGu7ZvFE66Z81DEIiD86-7" value="Email Service" style="text;html=1;align=center;verticalAlign=middle;whiteSpace=wrap;rounded=0;" vertex="1" parent="1">
          <mxGeometry x="409" y="440" width="60" height="30" as="geometry" />
        </mxCell>
        <mxCell id="vGu7ZvFE66Z81DEIiD86-9" value="" style="outlineConnect=0;dashed=0;verticalLabelPosition=bottom;verticalAlign=top;align=center;html=1;shape=mxgraph.aws3.email;fillColor=#D9A741;gradientColor=none;" vertex="1" parent="1">
          <mxGeometry x="398.5" y="360" width="81" height="61.5" as="geometry" />
        </mxCell>
        <mxCell id="vGu7ZvFE66Z81DEIiD86-10" value="" style="sketch=0;pointerEvents=1;shadow=0;dashed=0;html=1;strokeColor=none;fillColor=#434445;aspect=fixed;labelPosition=center;verticalLabelPosition=bottom;verticalAlign=top;align=center;outlineConnect=0;shape=mxgraph.vvd.laptop;" vertex="1" parent="1">
          <mxGeometry x="610" y="382" width="50" height="36" as="geometry" />
        </mxCell>
      </root>
    </mxGraphModel>
  </diagram>
</mxfile>
